<svg xmlns="http://www.w3.org/2000/svg" viewBox="-8.895000000000001 -0.9 23.040000000000003 10.8" preserveAspectRatio="xMidYMid meet"><marker id="arrow" viewBox="0 0 10 10" refX="5" refY="5" fill="#ccc" markerWidth="4.5" markerHeight="4.5" orient="auto-start-reverse">
<path d="M 0 0 L 10 5 L 0 10 z"></path>
</marker><g stroke="#ccc" font-size="0.14118932974159742" stroke-width="0.2em"><g fill="transparent"><path d="M 0 0 L -3.4825000000000004 0.7 L -4.9750000000000005 1" marker-mid="url(#arrow)"></path><path d="M 0 0 L 3.4825000000000004 0.7 L 4.9750000000000005 1" marker-mid="url(#arrow)"></path><path d="M -4.9750000000000005 1 L -5.255000000000001 1.7 L -5.375000000000001 2" marker-mid="url(#arrow)"></path><path d="M -4.9750000000000005 1 L -4.695 1.7 L -4.575 2" marker-mid="url(#arrow)"></path><path d="M -5.375000000000001 2 L -5.655000000000001 2.6999999999999997 L -5.775000000000001 3" marker-mid="url(#arrow)"></path><path d="M -5.375000000000001 2 L -5.095000000000001 2.6999999999999997 L -4.9750000000000005 3" marker-mid="url(#arrow)"></path><path d="M -5.775000000000001 3 L -6.0550000000000015 3.7 L -6.175000000000002 4" marker-mid="url(#arrow)"></path><path d="M -5.775000000000001 3 L -5.495000000000001 3.7 L -5.375000000000001 4" marker-mid="url(#arrow)"></path><path d="M 4.9750000000000005 1 L 1.4400000000000002 1.7 L -0.07500000000000018 2" marker-mid="url(#arrow)"></path><path d="M 4.9750000000000005 1 L 4.45 1.7 L 4.2250000000000005 2" marker-mid="url(#arrow)"></path><path d="M 4.9750000000000005 1 L 5.710000000000001 1.7 L 6.025 2" marker-mid="url(#arrow)"></path><path d="M 4.9750000000000005 1 L 6.970000000000001 1.7 L 7.825000000000001 2" marker-mid="url(#arrow)"></path><path d="M 4.9750000000000005 1 L 8.510000000000002 1.7 L 10.025000000000002 2" marker-mid="url(#arrow)"></path><path d="M -0.07500000000000018 2 L -1.6850000000000003 2.6999999999999997 L -2.3750000000000004 3" marker-mid="url(#arrow)"></path><path d="M -0.07500000000000018 2 L 1.535 2.6999999999999997 L 2.225 3" marker-mid="url(#arrow)"></path><path d="M -2.3750000000000004 3 L -3.915000000000001 3.7 L -4.575000000000001 4" marker-mid="url(#arrow)"></path><path d="M -2.3750000000000004 3 L -1.6750000000000005 3.7 L -1.3750000000000004 4" marker-mid="url(#arrow)"></path><path d="M -2.3750000000000004 3 L -0.8350000000000004 3.7 L -0.17500000000000027 4" marker-mid="url(#arrow)"></path><path d="M -4.575000000000001 4 L -4.575000000000001 4.7 L -4.575000000000001 5" marker-mid="url(#arrow)"></path><path d="M -4.575000000000001 5 L -5.695 5.699999999999999 L -6.175000000000001 6" marker-mid="url(#arrow)"></path><path d="M -4.575000000000001 5 L -5.135000000000001 5.699999999999999 L -5.375000000000001 6" marker-mid="url(#arrow)"></path><path d="M -4.575000000000001 5 L -4.575000000000001 5.699999999999999 L -4.575000000000001 6" marker-mid="url(#arrow)"></path><path d="M -4.575000000000001 5 L -4.015000000000001 5.699999999999999 L -3.7750000000000012 6" marker-mid="url(#arrow)"></path><path d="M -4.575000000000001 5 L -3.455000000000001 5.699999999999999 L -2.975000000000001 6" marker-mid="url(#arrow)"></path><path d="M -6.175000000000001 6 L -6.455 6.699999999999999 L -6.575000000000001 7" marker-mid="url(#arrow)"></path><path d="M -6.175000000000001 6 L -5.895000000000001 6.699999999999999 L -5.775 7" marker-mid="url(#arrow)"></path><path d="M -2.975000000000001 6 L -3.255000000000001 6.699999999999999 L -3.375000000000001 7" marker-mid="url(#arrow)"></path><path d="M -2.975000000000001 6 L -2.695000000000001 6.699999999999999 L -2.575000000000001 7" marker-mid="url(#arrow)"></path><path d="M -2.575000000000001 7 L -2.855000000000001 7.7 L -2.975000000000001 8" marker-mid="url(#arrow)"></path><path d="M -2.575000000000001 7 L -2.295000000000001 7.7 L -2.175000000000001 8" marker-mid="url(#arrow)"></path><path d="M -2.975000000000001 8 L -2.975000000000001 8.7 L -2.975000000000001 9" marker-mid="url(#arrow)"></path><path d="M -1.3750000000000004 4 L -1.3750000000000004 4.7 L -1.3750000000000004 5" marker-mid="url(#arrow)"></path><path d="M -1.3750000000000004 5 L -1.3750000000000004 5.699999999999999 L -1.3750000000000004 6" marker-mid="url(#arrow)"></path><path d="M -1.3750000000000004 6 L -1.3750000000000004 6.699999999999999 L -1.3750000000000004 7" marker-mid="url(#arrow)"></path><path d="M -1.3750000000000004 7 L -1.3750000000000004 7.7 L -1.3750000000000004 8" marker-mid="url(#arrow)"></path><path d="M -1.3750000000000004 8 L -1.3750000000000004 8.7 L -1.3750000000000004 9" marker-mid="url(#arrow)"></path><path d="M -0.17500000000000027 4 L -0.4550000000000003 4.7 L -0.5750000000000003 5" marker-mid="url(#arrow)"></path><path d="M -0.17500000000000027 4 L 0.10499999999999972 4.7 L 0.22499999999999976 5" marker-mid="url(#arrow)"></path><path d="M -0.5750000000000003 5 L -0.5750000000000003 5.699999999999999 L -0.5750000000000003 6" marker-mid="url(#arrow)"></path><path d="M 0.22499999999999976 5 L 0.22499999999999976 5.699999999999999 L 0.22499999999999976 6" marker-mid="url(#arrow)"></path><path d="M 0.22499999999999976 6 L 0.22499999999999976 6.699999999999999 L 0.22499999999999976 7" marker-mid="url(#arrow)"></path><path d="M 0.22499999999999976 7 L 0.22499999999999976 7.7 L 0.22499999999999976 8" marker-mid="url(#arrow)"></path><path d="M 2.225 3 L 1.105 3.7 L 0.625 4" marker-mid="url(#arrow)"></path><path d="M 2.225 3 L 1.665 3.7 L 1.425 4" marker-mid="url(#arrow)"></path><path d="M 2.225 3 L 2.225 3.7 L 2.225 4" marker-mid="url(#arrow)"></path><path d="M 2.225 3 L 3.3449999999999998 3.7 L 3.825 4" marker-mid="url(#arrow)"></path><path d="M 1.425 4 L 1.425 4.7 L 1.425 5" marker-mid="url(#arrow)"></path><path d="M 2.225 4 L 2.225 4.7 L 2.225 5" marker-mid="url(#arrow)"></path><path d="M 3.825 4 L 3.2650000000000006 4.7 L 3.0250000000000004 5" marker-mid="url(#arrow)"></path><path d="M 3.825 4 L 3.825 4.7 L 3.825 5" marker-mid="url(#arrow)"></path><path d="M 3.825 4 L 4.385 4.7 L 4.625 5" marker-mid="url(#arrow)"></path><path d="M 3.0250000000000004 5 L 3.0250000000000004 5.699999999999999 L 3.0250000000000004 6" marker-mid="url(#arrow)"></path><path d="M 3.0250000000000004 6 L 2.745 6.699999999999999 L 2.6250000000000004 7" marker-mid="url(#arrow)"></path><path d="M 3.0250000000000004 6 L 3.305 6.699999999999999 L 3.4250000000000003 7" marker-mid="url(#arrow)"></path><path d="M 2.6250000000000004 7 L 2.6250000000000004 7.7 L 2.6250000000000004 8" marker-mid="url(#arrow)"></path><path d="M 3.4250000000000003 7 L 3.4250000000000003 7.7 L 3.4250000000000003 8" marker-mid="url(#arrow)"></path><path d="M 4.625 5 L 4.625 5.699999999999999 L 4.625 6" marker-mid="url(#arrow)"></path><path d="M 4.2250000000000005 2 L 4.2250000000000005 2.6999999999999997 L 4.2250000000000005 3" marker-mid="url(#arrow)"></path><path d="M 6.025 2 L 5.325 2.6999999999999997 L 5.025 3" marker-mid="url(#arrow)"></path><path d="M 6.025 2 L 6.165 2.6999999999999997 L 6.2250000000000005 3" marker-mid="url(#arrow)"></path><path d="M 6.025 2 L 6.725 2.6999999999999997 L 7.025 3" marker-mid="url(#arrow)"></path><path d="M 5.025 3 L 4.745 3.7 L 4.625 4" marker-mid="url(#arrow)"></path><path d="M 5.025 3 L 5.305000000000001 3.7 L 5.425000000000001 4" marker-mid="url(#arrow)"></path><path d="M 6.2250000000000005 3 L 6.2250000000000005 3.7 L 6.2250000000000005 4" marker-mid="url(#arrow)"></path><path d="M 7.825000000000001 2 L 7.825000000000001 2.6999999999999997 L 7.825000000000001 3" marker-mid="url(#arrow)"></path><path d="M 7.825000000000001 3 L 7.825000000000001 3.7 L 7.825000000000001 4" marker-mid="url(#arrow)"></path><path d="M 10.025000000000002 2 L 9.045000000000002 2.6999999999999997 L 8.625000000000002 3" marker-mid="url(#arrow)"></path><path d="M 10.025000000000002 2 L 9.605000000000002 2.6999999999999997 L 9.425000000000002 3" marker-mid="url(#arrow)"></path><path d="M 10.025000000000002 2 L 10.165000000000003 2.6999999999999997 L 10.225000000000001 3" marker-mid="url(#arrow)"></path><path d="M 10.025000000000002 2 L 11.005000000000003 2.6999999999999997 L 11.425000000000002 3" marker-mid="url(#arrow)"></path><path d="M 9.425000000000002 3 L 9.425000000000002 3.7 L 9.425000000000002 4" marker-mid="url(#arrow)"></path><path d="M 10.225000000000001 3 L 10.225000000000001 3.7 L 10.225000000000001 4" marker-mid="url(#arrow)"></path><path d="M 11.425000000000002 3 L 11.145000000000003 3.7 L 11.025000000000002 4" marker-mid="url(#arrow)"></path><path d="M 11.425000000000002 3 L 11.705000000000002 3.7 L 11.825000000000003 4" marker-mid="url(#arrow)"></path><path d="M 11.025000000000002 4 L 11.025000000000002 4.7 L 11.025000000000002 5" marker-mid="url(#arrow)"></path></g><g fill="#fa0"><circle r="0.75em" cx="0" cy="0"></circle><circle r="0.75em" cx="-4.9750000000000005" cy="1"></circle><circle r="0.75em" cx="-5.375000000000001" cy="2"></circle><circle r="0.75em" cx="-5.775000000000001" cy="3"></circle><circle r="0.75em" cx="-6.175000000000002" cy="4"></circle><circle r="0.75em" cx="-5.375000000000001" cy="4"></circle><circle r="0.75em" cx="-4.9750000000000005" cy="3"></circle><circle r="0.75em" cx="-4.575" cy="2"></circle><circle r="0.75em" cx="4.9750000000000005" cy="1"></circle><circle r="0.75em" cx="-0.07500000000000018" cy="2"></circle><circle r="0.75em" cx="-2.3750000000000004" cy="3"></circle><circle r="0.75em" cx="-4.575000000000001" cy="4"></circle><circle r="0.75em" cx="-4.575000000000001" cy="5"></circle><circle r="0.75em" cx="-6.175000000000001" cy="6"></circle><circle r="0.75em" cx="-6.575000000000001" cy="7"></circle><circle r="0.75em" cx="-5.775" cy="7"></circle><circle r="0.75em" cx="-5.375000000000001" cy="6"></circle><circle r="0.75em" cx="-4.575000000000001" cy="6"></circle><circle r="0.75em" cx="-3.7750000000000012" cy="6"></circle><circle r="0.75em" cx="-2.975000000000001" cy="6"></circle><circle r="0.75em" cx="-3.375000000000001" cy="7"></circle><circle r="0.75em" cx="-2.575000000000001" cy="7"></circle><circle r="0.75em" cx="-2.975000000000001" cy="8"></circle><circle r="0.75em" cx="-2.975000000000001" cy="9"></circle><circle r="0.75em" cx="-2.175000000000001" cy="8"></circle><circle r="0.75em" cx="-1.3750000000000004" cy="4"></circle><circle r="0.75em" cx="-1.3750000000000004" cy="5"></circle><circle r="0.75em" cx="-1.3750000000000004" cy="6"></circle><circle r="0.75em" cx="-1.3750000000000004" cy="7"></circle><circle r="0.75em" cx="-1.3750000000000004" cy="8"></circle><circle r="0.75em" cx="-1.3750000000000004" cy="9"></circle><circle r="0.75em" cx="-0.17500000000000027" cy="4"></circle><circle r="0.75em" cx="-0.5750000000000003" cy="5"></circle><circle r="0.75em" cx="-0.5750000000000003" cy="6"></circle><circle r="0.75em" cx="0.22499999999999976" cy="5"></circle><circle r="0.75em" cx="0.22499999999999976" cy="6"></circle><circle r="0.75em" cx="0.22499999999999976" cy="7"></circle><circle r="0.75em" cx="0.22499999999999976" cy="8"></circle><circle r="0.75em" cx="2.225" cy="3"></circle><circle r="0.75em" cx="0.625" cy="4"></circle><circle r="0.75em" cx="1.425" cy="4"></circle><circle r="0.75em" cx="1.425" cy="5"></circle><circle r="0.75em" cx="2.225" cy="4"></circle><circle r="0.75em" cx="2.225" cy="5"></circle><circle r="0.75em" cx="3.825" cy="4"></circle><circle r="0.75em" cx="3.0250000000000004" cy="5"></circle><circle r="0.75em" cx="3.0250000000000004" cy="6"></circle><circle r="0.75em" cx="2.6250000000000004" cy="7"></circle><circle r="0.75em" cx="2.6250000000000004" cy="8"></circle><circle r="0.75em" cx="3.4250000000000003" cy="7"></circle><circle r="0.75em" cx="3.4250000000000003" cy="8"></circle><circle r="0.75em" cx="3.825" cy="5"></circle><circle r="0.75em" cx="4.625" cy="5"></circle><circle r="0.75em" cx="4.625" cy="6"></circle><circle r="0.75em" cx="4.2250000000000005" cy="2"></circle><circle r="0.75em" cx="4.2250000000000005" cy="3"></circle><circle r="0.75em" cx="6.025" cy="2"></circle><circle r="0.75em" cx="5.025" cy="3"></circle><circle r="0.75em" cx="4.625" cy="4"></circle><circle r="0.75em" cx="5.425000000000001" cy="4"></circle><circle r="0.75em" cx="6.2250000000000005" cy="3"></circle><circle r="0.75em" cx="6.2250000000000005" cy="4"></circle><circle r="0.75em" cx="7.025" cy="3"></circle><circle r="0.75em" cx="7.825000000000001" cy="2"></circle><circle r="0.75em" cx="7.825000000000001" cy="3"></circle><circle r="0.75em" cx="7.825000000000001" cy="4"></circle><circle r="0.75em" cx="10.025000000000002" cy="2"></circle><circle r="0.75em" cx="8.625000000000002" cy="3"></circle><circle r="0.75em" cx="9.425000000000002" cy="3"></circle><circle r="0.75em" cx="9.425000000000002" cy="4"></circle><circle r="0.75em" cx="10.225000000000001" cy="3"></circle><circle r="0.75em" cx="10.225000000000001" cy="4"></circle><circle r="0.75em" cx="11.425000000000002" cy="3"></circle><circle r="0.75em" cx="11.025000000000002" cy="4"></circle><circle r="0.75em" cx="11.025000000000002" cy="5"></circle><circle r="0.75em" cx="11.825000000000003" cy="4"></circle></g></g></svg>